<svg width="513" height="513" viewBox="0 0 513 513" fill="none" xmlns="http://www.w3.org/2000/svg">
<g filter="url(#filter0_i_34_4)">
<rect width="512.203" height="512.203" rx="68" fill="#1EFFAA"/>
</g>
<path d="M310.119 257.956C311.464 264.009 313.482 270.061 314.827 276.114C322.225 305.706 329.623 334.625 337.021 364.217C337.693 366.234 337.021 366.907 335.676 368.252C308.102 383.047 278.51 390.445 246.901 388.427C222.017 387.082 199.824 379.012 177.63 367.579C175.613 366.906 176.284 365.561 176.284 364.217C182.337 338.66 189.063 313.776 195.115 288.219C197.133 278.132 199.824 268.044 202.514 257.956C220 263.336 238.158 265.353 256.317 265.353C274.475 265.353 291.961 263.336 310.119 257.956ZM384.787 323.864C388.15 331.934 391.513 340.005 394.203 348.075C395.548 350.765 394.203 354.128 392.186 356.818C383.443 368.251 372.682 376.994 360.576 384.392C356.541 386.41 352.507 385.065 351.161 380.357C348.471 368.924 345.108 357.491 342.418 346.73C342.418 346.058 343.09 344.713 343.763 344.713C357.886 337.315 371.337 330.589 384.787 323.864ZM167.567 344.04C168.239 344.712 168.911 346.058 168.911 346.73L160.841 379.011C159.496 385.064 155.461 386.41 150.753 383.719C138.648 376.994 128.56 368.251 119.817 357.491C117.127 354.801 116.454 351.438 117.799 348.075C120.489 340.005 123.851 331.934 127.214 323.864C140.665 330.589 154.116 337.314 167.567 344.04ZM144.027 280.822C146.717 282.167 148.735 282.839 150.752 284.184C160.168 288.892 168.911 293.6 178.326 297.635C179.671 298.308 180.344 298.98 179.671 300.998C177.654 311.758 174.964 322.519 172.274 334.625C158.823 327.899 145.372 321.174 131.248 313.776C135.956 302.343 139.991 291.582 144.027 280.822ZM367.976 280.822C372.684 291.583 376.719 303.016 380.754 313.776C367.304 320.501 353.853 327.227 339.73 334.625C337.712 325.882 335.022 317.138 333.004 308.395C332.332 305.033 330.315 301.671 331.659 299.653C333.004 297.635 337.04 296.29 339.73 294.945C347.8 290.91 356.543 286.875 364.614 282.84C365.958 281.495 366.631 280.822 367.976 280.822ZM351.141 238.452C355.176 248.54 359.212 259.3 363.919 270.733C351.814 276.786 340.38 282.167 328.275 288.219C326.257 280.822 324.24 273.424 322.895 266.026C322.222 262.663 321.55 259.973 320.877 256.61C320.877 255.938 320.877 254.593 321.549 253.921C330.965 248.54 341.053 243.16 351.141 238.452ZM160.827 238.452C170.915 243.832 180.331 248.54 190.419 253.248C191.092 253.248 191.764 254.593 191.764 255.265L183.694 287.547C171.588 282.166 160.155 276.113 148.049 270.733C152.757 259.3 156.792 248.54 160.827 238.452ZM148.729 123.448C150.074 130.846 151.419 138.244 153.437 145.642C160.162 169.853 171.595 191.375 191.099 207.515C208.585 221.638 228.088 228.364 250.281 229.037C266.422 229.709 281.891 227.691 297.36 221.638C320.226 211.55 336.366 194.737 347.799 173.216C355.197 158.42 359.905 143.624 362.595 127.483C362.595 126.811 363.268 125.466 363.268 124.121C376.046 128.829 388.152 133.537 394.877 145.642C397.567 149.678 397.567 155.058 396.222 159.765C392.187 176.579 383.443 190.029 372.683 202.807C348.472 231.054 317.535 248.54 280.546 252.575C249.61 255.938 218.673 254.593 189.754 241.142C158.818 227.019 135.278 204.152 120.483 173.216C118.465 168.508 117.12 163.128 115.775 157.748C113.757 150.35 116.447 144.297 121.155 138.917C128.552 130.846 138.641 126.811 148.729 123.448ZM294.648 162.456C302.046 163.801 320.876 175.234 328.947 183.304C300.027 227.019 217.978 231.726 183.679 183.976C190.404 176.578 209.908 164.473 217.979 162.456C217.979 174.561 222.687 185.322 232.775 192.719C239.5 198.1 247.57 200.79 256.986 200.79C273.799 200.79 293.975 187.339 294.648 162.456ZM256.324 136.899C271.793 136.899 283.226 149.005 283.226 164.473C283.226 178.596 271.12 190.702 256.324 190.702C240.856 190.702 229.423 179.269 229.423 163.801C229.423 148.332 240.856 136.899 256.324 136.899Z" fill="url(#paint0_linear_34_4)"/>
<defs>
<filter id="filter0_i_34_4" x="0" y="0" width="512.203" height="529.203" filterUnits="userSpaceOnUse" color-interpolation-filters="sRGB">
<feFlood flood-opacity="0" result="BackgroundImageFix"/>
<feBlend mode="normal" in="SourceGraphic" in2="BackgroundImageFix" result="shape"/>
<feColorMatrix in="SourceAlpha" type="matrix" values="0 0 0 0 0 0 0 0 0 0 0 0 0 0 0 0 0 0 127 0" result="hardAlpha"/>
<feOffset dy="17"/>
<feGaussianBlur stdDeviation="9.7"/>
<feComposite in2="hardAlpha" operator="arithmetic" k2="-1" k3="1"/>
<feColorMatrix type="matrix" values="0 0 0 0 1 0 0 0 0 0.956207 0 0 0 0 0.124149 0 0 0 0.23 0"/>
<feBlend mode="normal" in2="shape" result="effect1_innerShadow_34_4"/>
</filter>
<linearGradient id="paint0_linear_34_4" x1="256.101" y1="123.448" x2="256.101" y2="388.754" gradientUnits="userSpaceOnUse">
<stop/>
<stop offset="1" stop-color="#181818"/>
</linearGradient>
</defs>
</svg>
